{
	"asset":{
		"generator":"Khronos glTF Blender I/O v4.4.56",
		"version":"2.0"
	},
	"extensionsUsed":[
		"KHR_materials_specular",
		"KHR_materials_ior"
	],
	"scene":0,
	"scenes":[
		{
			"name":"Scene",
			"nodes":[
				20
			]
		}
	],
	"nodes":[
		{
			"name":"Bullet",
			"rotation":[
				0.7071068286895752,
				0.7071067094802856,
				-1.3627574446672952e-07,
				3.0908616110991716e-08
			],
			"translation":[
				-2.4735564707611957e-09,
				0.09313686937093735,
				-0.08856640011072159
			]
		},
		{
			"name":"Bullet2",
			"rotation":[
				0.7071068286895752,
				0.7071067094802856,
				-1.3627574446672952e-07,
				3.0908616110991716e-08
			],
			"translation":[
				0.017315637320280075,
				0.09313685446977615,
				-0.07856997102499008
			]
		},
		{
			"name":"Bullet3",
			"rotation":[
				0.7071068286895752,
				0.7071067094802856,
				-1.060686400933264e-07,
				5.3385068810030134e-08
			],
			"translation":[
				0.017316292971372604,
				0.09313686192035675,
				-0.05857597663998604
			]
		},
		{
			"name":"Bullet4",
			"rotation":[
				0.7071068286895752,
				0.7071067094802856,
				-1.060686400933264e-07,
				5.3385068810030134e-08
			],
			"translation":[
				1.3159499303583289e-06,
				0.09313686937093735,
				-0.0485784076154232
			]
		},
		{
			"name":"Bullet5",
			"rotation":[
				0.7071068286895752,
				0.7071067094802856,
				-1.060686400933264e-07,
				5.3385068810030134e-08
			],
			"translation":[
				-0.017314322292804718,
				0.09313687682151794,
				-0.05857483670115471
			]
		},
		{
			"name":"Bullet6",
			"rotation":[
				0.7071068286895752,
				0.7071067094802856,
				-1.3627574446672952e-07,
				3.0908616110991716e-08
			],
			"translation":[
				-0.017314979806542397,
				0.09313687682151794,
				-0.07856883108615875
			]
		},
		{
			"name":"Muzzle",
			"rotation":[
				-0.70710688829422,
				-0.7071066498756409,
				1.5734917724330444e-07,
				5.338507236274381e-08
			],
			"translation":[
				1.7128424900647587e-08,
				0.35556167364120483,
				-0.0887107402086258
			]
		},
		{
			"name":"Stat_Track",
			"rotation":[
				0.7071068286895752,
				0.7071067094802856,
				-1.362757302558748e-07,
				3.0908616110991716e-08
			],
			"translation":[
				0.017548227682709694,
				0.03558412194252014,
				-0.10052059590816498
			]
		},
		{
			"name":"Hammer",
			"rotation":[
				0.7071067690849304,
				0.7071067690849304,
				-1.3627574446672952e-07,
				3.0908619663705394e-08
			],
			"translation":[
				-5.207712927557395e-09,
				0.022177845239639282,
				-0.06444107741117477
			]
		},
		{
			"name":"Mag_Holder",
			"rotation":[
				-6.301247501214191e-17,
				7.574776361707336e-09,
				-3.5584514799852016e-14,
				1
			],
			"translation":[
				3.042575968947858e-09,
				0.09697088599205017,
				-0.06857325881719589
			]
		},
		{
			"name":"Reflex",
			"rotation":[
				0.7071068286895752,
				0.7071067094802856,
				-1.3627574446672952e-07,
				3.0908616110991716e-08
			],
			"translation":[
				-2.9897570641423954e-08,
				0.1108747124671936,
				-0.1090843454003334
			]
		},
		{
			"name":"Charging_Handle",
			"rotation":[
				-6.300993391330015e-17,
				7.574776361707336e-09,
				-5.737705893494064e-17,
				1
			],
			"translation":[
				6.080760783788719e-09,
				0.1791946440935135,
				-0.06865724176168442
			]
		},
		{
			"name":"Trigger",
			"rotation":[
				-6.300993391330015e-17,
				7.574776361707336e-09,
				-5.737705893494064e-17,
				1
			],
			"translation":[
				-2.502570062290488e-08,
				0.07076483219861984,
				-0.03521350398659706
			]
		},
		{
			"name":"Mag_Rotator",
			"rotation":[
				-6.300993391330015e-17,
				7.574776361707336e-09,
				-5.737705893494064e-17,
				1
			],
			"translation":[
				0.009651686064898968,
				0.13990254700183868,
				-0.025866877287626266
			]
		},
		{
			"name":"Gun_Buddy",
			"rotation":[
				0.7071068286895752,
				0.7071067094802856,
				-1.362757302558748e-07,
				3.0908616110991716e-08
			],
			"translation":[
				0.019042404368519783,
				0.21037118136882782,
				-0.08781269192695618
			]
		},
		{
			"name":"Magazine_Extra",
			"rotation":[
				0.7071067690849304,
				0.7071067690849304,
				-5.338507591545749e-08,
				5.338507591545749e-08
			],
			"translation":[
				2.482156880034836e-08,
				0.03249742090702057,
				0.2101755291223526
			]
		},
		{
			"name":"Left_Hand_Target",
			"rotation":[
				-7.450579175838357e-08,
				7.574778138064175e-09,
				-9.734088865561027e-16,
				1
			],
			"translation":[
				4.190030544748424e-09,
				-0.10619698464870453,
				0.11384101212024689
			]
		},
		{
			"children":[
				0,
				1,
				2,
				3,
				4,
				5,
				6,
				7,
				8,
				9,
				10,
				11,
				12,
				13,
				14,
				15,
				16
			],
			"name":"Root",
			"rotation":[
				8.429369557916289e-08,
				-8.42937097900176e-08,
				7.414299615883177e-16,
				1
			],
			"translation":[
				1.0727526031443414e-16,
				4.019634964857872e-32,
				2.0382131647777808e-32
			]
		},
		{
			"children":[
				17
			],
			"name":"Skeleton",
			"rotation":[
				0.5,
				0.5,
				-0.4999999403953552,
				0.5000000596046448
			]
		},
		{
			"mesh":0,
			"name":"GN_Revolver_S0_Skelmesh.mo",
			"skin":0
		},
		{
			"children":[
				19,
				18
			],
			"name":"Revolver Wushu"
		}
	],
	"materials":[
		{
			"doubleSided":true,
			"emissiveFactor":[
				1,
				1,
				1
			],
			"emissiveTexture":{
				"index":0
			},
			"extensions":{
				"KHR_materials_specular":{
					"specularTexture":{
						"index":1
					}
				},
				"KHR_materials_ior":{
					"ior":1.4500000476837158
				}
			},
			"name":"Revolver_S0_MI",
			"normalTexture":{
				"index":2
			},
			"pbrMetallicRoughness":{
				"baseColorTexture":{
					"index":3
				},
				"metallicRoughnessTexture":{
					"index":4
				}
			}
		},
		{
			"alphaMode":"MASK",
			"doubleSided":true,
			"name":"Tritium_MI",
			"pbrMetallicRoughness":{
				"baseColorFactor":[
					0.800000011920929,
					0.800000011920929,
					0.800000011920929,
					0
				],
				"metallicFactor":0,
				"roughnessFactor":0.5
			}
		}
	],
	"meshes":[
		{
			"name":"GN_Revolver_S0_Skelmesh.md",
			"primitives":[
				{
					"attributes":{
						"POSITION":0,
						"NORMAL":1,
						"TEXCOORD_0":2,
						"JOINTS_0":3,
						"WEIGHTS_0":4
					},
					"indices":5,
					"material":0
				},
				{
					"attributes":{
						"POSITION":6,
						"NORMAL":7,
						"TEXCOORD_0":8,
						"JOINTS_0":9,
						"WEIGHTS_0":10
					},
					"indices":11,
					"material":1
				}
			]
		}
	],
	"textures":[
		{
			"sampler":0,
			"source":0
		},
		{
			"sampler":0,
			"source":1
		},
		{
			"sampler":0,
			"source":2
		},
		{
			"sampler":0,
			"source":3
		},
		{
			"sampler":0,
			"source":4
		}
	],
	"images":[
		{
			"mimeType":"image/png",
			"name":"Revolver_Wushu_AEM",
			"uri":"Revolver_Wushu_AEM.png"
		},
		{
			"mimeType":"image/png",
			"name":"Revolver_Wushu_MRS",
			"uri":"Revolver_Wushu_MRS.png"
		},
		{
			"mimeType":"image/png",
			"name":"Revolver_Wushu_NM",
			"uri":"Revolver_Wushu_NM.png"
		},
		{
			"mimeType":"image/png",
			"name":"Revolver_Wushu_DF",
			"uri":"Revolver_Wushu_DF.png"
		},
		{
			"mimeType":"image/png",
			"name":"Revolver_Wushu_MRS",
			"uri":"Revolver_Wushu_MRS-1.png"
		}
	],
	"skins":[
		{
			"inverseBindMatrices":12,
			"joints":[
				18,
				17,
				0,
				1,
				2,
				3,
				4,
				5,
				6,
				7,
				8,
				9,
				10,
				11,
				12,
				13,
				14,
				15,
				16
			],
			"name":"Revolver Wushu"
		}
	],
	"accessors":[
		{
			"bufferView":0,
			"componentType":5126,
			"count":4631,
			"max":[
				0.3555617034435272,
				0.1230722963809967,
				0.02922595478594303
			],
			"min":[
				-0.0697840079665184,
				-0.08925409615039825,
				-0.02922596037387848
			],
			"type":"VEC3"
		},
		{
			"bufferView":1,
			"componentType":5126,
			"count":4631,
			"type":"VEC3"
		},
		{
			"bufferView":2,
			"componentType":5126,
			"count":4631,
			"type":"VEC2"
		},
		{
			"bufferView":3,
			"componentType":5121,
			"count":4631,
			"type":"VEC4"
		},
		{
			"bufferView":4,
			"componentType":5126,
			"count":4631,
			"type":"VEC4"
		},
		{
			"bufferView":5,
			"componentType":5123,
			"count":15840,
			"type":"SCALAR"
		},
		{
			"bufferView":6,
			"componentType":5126,
			"count":180,
			"max":[
				0.3413124084472656,
				0.12213629484176636,
				0.004696900025010109
			],
			"min":[
				0.028186608105897903,
				0.11657099425792694,
				-0.004696900025010109
			],
			"type":"VEC3"
		},
		{
			"bufferView":7,
			"componentType":5126,
			"count":180,
			"type":"VEC3"
		},
		{
			"bufferView":8,
			"componentType":5126,
			"count":180,
			"type":"VEC2"
		},
		{
			"bufferView":9,
			"componentType":5121,
			"count":180,
			"type":"VEC4"
		},
		{
			"bufferView":10,
			"componentType":5126,
			"count":180,
			"type":"VEC4"
		},
		{
			"bufferView":11,
			"componentType":5123,
			"count":492,
			"type":"SCALAR"
		},
		{
			"bufferView":12,
			"componentType":5126,
			"count":19,
			"type":"MAT4"
		}
	],
	"bufferViews":[
		{
			"buffer":0,
			"byteLength":55572,
			"byteOffset":0,
			"target":34962
		},
		{
			"buffer":0,
			"byteLength":55572,
			"byteOffset":55572,
			"target":34962
		},
		{
			"buffer":0,
			"byteLength":37048,
			"byteOffset":111144,
			"target":34962
		},
		{
			"buffer":0,
			"byteLength":18524,
			"byteOffset":148192,
			"target":34962
		},
		{
			"buffer":0,
			"byteLength":74096,
			"byteOffset":166716,
			"target":34962
		},
		{
			"buffer":0,
			"byteLength":31680,
			"byteOffset":240812,
			"target":34963
		},
		{
			"buffer":0,
			"byteLength":2160,
			"byteOffset":272492,
			"target":34962
		},
		{
			"buffer":0,
			"byteLength":2160,
			"byteOffset":274652,
			"target":34962
		},
		{
			"buffer":0,
			"byteLength":1440,
			"byteOffset":276812,
			"target":34962
		},
		{
			"buffer":0,
			"byteLength":720,
			"byteOffset":278252,
			"target":34962
		},
		{
			"buffer":0,
			"byteLength":2880,
			"byteOffset":278972,
			"target":34962
		},
		{
			"buffer":0,
			"byteLength":984,
			"byteOffset":281852,
			"target":34963
		},
		{
			"buffer":0,
			"byteLength":1216,
			"byteOffset":282836
		}
	],
	"samplers":[
		{
			"magFilter":9729,
			"minFilter":9987
		}
	],
	"buffers":[
		{
			"byteLength":284052,
			"uri":"Revolver_Wushu.bin"
		}
	]
}
